<?xml version="1.0" encoding="UTF-8"?><svg id="Layer_2" xmlns="http://www.w3.org/2000/svg" viewBox="0 0 2021 1085.33"><defs><style>.cls-1{fill:#9b35ff;}.cls-1,.cls-2{stroke:#9b35ff;stroke-linecap:round;stroke-linejoin:round;}.cls-1,.cls-2,.cls-3,.cls-4,.cls-5{stroke-width:20px;}.cls-6,.cls-4{fill:#fff;}.cls-2{fill:#aba4ff;}.cls-3{fill:#006837;}.cls-3,.cls-4,.cls-5{stroke-miterlimit:10;}.cls-3,.cls-5{stroke:#006837;}.cls-4{stroke:gray;}.cls-5{fill:#009245;}</style></defs><g id="frame"><g><rect class="cls-6" x="10" y="96.19" width="2001" height="979.13" rx="10" ry="10"/><path d="M2001,106.19v959.13H20V106.19H2001m0-20H20c-11.05,0-20,8.95-20,20v959.13c0,11.05,8.95,20,20,20H2001c11.05,0,20-8.95,20-20V106.19c0-11.05-8.95-20-20-20h0Z"/></g></g><g id="buttons"><circle id="right_button" class="cls-1" cx="1780.04" cy="469.35" r="89.92"/><circle id="down_button" class="cls-2" cx="1600.2" cy="628.28" r="89.92"/><circle id="left_button" class="cls-2" cx="1421.76" cy="469.35" r="89.92"/><circle id="up_button" class="cls-2" cx="1600.2" cy="311.82" r="89.92"/><g id="bumpers"><rect class="cls-2" x="212.38" y="10" width="538.12" height="161.71"/><rect class="cls-2" x="1277.47" y="10" width="538.12" height="161.71"/></g><g id="directions"><polygon id="up_arrow" class="cls-3" points="432.65 321.26 432.65 221.9 296.03 221.9 296.03 321.26 364.34 401.74 432.65 321.26"/><polygon id="down_arrow" class="cls-5" points="429.86 563.07 429.86 662.43 293.24 662.43 293.24 563.07 361.55 482.6 429.86 563.07"/><polygon id="right_arrow" class="cls-5" points="482.45 373.86 581.82 373.86 581.82 510.48 482.45 510.48 401.98 442.17 482.45 373.86"/><polygon id="left_arrow" class="cls-5" points="243.44 373.86 144.07 373.86 144.07 510.48 243.44 510.48 323.91 442.17 243.44 373.86"/></g><g id="multi_directional"><circle id="left_button-2" class="cls-2" cx="1239.29" cy="824.07" r="141.96"/><circle id="left_button-3" class="cls-2" cx="1239.29" cy="824.07" r="89.92"/><circle id="left_button-4" class="cls-2" cx="1239.29" cy="824.07" r="37.64"/></g><g id="multidirectional"><circle id="left_button-5" class="cls-4" cx="740.2" cy="824.07" r="141.96"/><circle id="left_button-6" class="cls-4" cx="740.2" cy="824.07" r="89.92"/><circle id="left_button-7" class="cls-4" cx="740.2" cy="824.07" r="37.64"/></g></g></svg>